<?xml version="1.0" encoding="UTF-8" standalone="no"?>
<svg
   xmlns:dc="http://purl.org/dc/elements/1.1/"
   xmlns:cc="http://creativecommons.org/ns#"
   xmlns:rdf="http://www.w3.org/1999/02/22-rdf-syntax-ns#"
   xmlns:svg="http://www.w3.org/2000/svg"
   xmlns="http://www.w3.org/2000/svg"
   xmlns:sodipodi="http://sodipodi.sourceforge.net/DTD/sodipodi-0.dtd"
   xmlns:inkscape="http://www.inkscape.org/namespaces/inkscape"
   width="95.969002"
   height="90.903999"
   id="svg3563"
   version="1.1"
   inkscape:version="0.48.4 r9939"
   sodipodi:docname="d3.svg">
  <metadata
     id="metadata3081">
    <rdf:RDF>
      <cc:Work
         rdf:about="">
        <dc:format>image/svg+xml</dc:format>
        <dc:type
           rdf:resource="http://purl.org/dc/dcmitype/StillImage" />
      </cc:Work>
    </rdf:RDF>
  </metadata>
  <defs
     id="defs3079" />
  <sodipodi:namedview
     pagecolor="#ffffff"
     bordercolor="#666666"
     borderopacity="1"
     objecttolerance="10"
     gridtolerance="10"
     guidetolerance="10"
     inkscape:pageopacity="0"
     inkscape:pageshadow="2"
     inkscape:window-width="1920"
     inkscape:window-height="1018"
     id="namedview3077"
     showgrid="false"
     fit-margin-top="0"
     fit-margin-left="0"
     fit-margin-right="0"
     fit-margin-bottom="0"
     inkscape:zoom="2.1656487"
     inkscape:cx="200.43575"
     inkscape:cy="-64.014942"
     inkscape:window-x="-8"
     inkscape:window-y="-8"
     inkscape:window-maximized="1"
     inkscape:current-layer="svg3563" />
  <linearGradient
     id="logo-gradient-1"
     gradientUnits="userSpaceOnUse"
     x1="37.241699"
     y1="7.0552001"
     x2="97.966904"
     y2="67.780296">
    <stop
       offset="0"
       stop-color="#F9A03C"
       id="stop3036" />
    <stop
       offset="1"
       stop-color="#F7974E"
       id="stop3038" />
  </linearGradient>
  <linearGradient
     id="logo-gradient-2"
     gradientUnits="userSpaceOnUse"
     x1="-8.0390997"
     y1="17.2148"
     x2="45.723999"
     y2="70.977997">
    <stop
       offset="0"
       stop-color="#F9A03C"
       id="stop3041" />
    <stop
       offset="1"
       stop-color="#F7974E"
       id="stop3043" />
  </linearGradient>
  <linearGradient
     id="logo-gradient-3"
     gradientUnits="userSpaceOnUse"
     x1="11.9321"
     y1="36.5513"
     x2="66.390099"
     y2="91.009201">
    <stop
       offset="0"
       stop-color="#F9A03C"
       id="stop3046" />
    <stop
       offset="1"
       stop-color="#F7974E"
       id="stop3048" />
  </linearGradient>
  <linearGradient
     id="logo-gradient-4"
     gradientUnits="userSpaceOnUse"
     x1="1.6533"
     y1="-1.6533"
     x2="86.899002"
     y2="83.5924">
    <stop
       offset="0"
       stop-color="#F26D58"
       id="stop3051" />
    <stop
       offset="1"
       stop-color="#F9A03C"
       id="stop3053" />
  </linearGradient>
  <linearGradient
     id="logo-gradient-5"
     gradientUnits="userSpaceOnUse"
     x1="45.244598"
     y1="-9.5482998"
     x2="108.0998"
     y2="53.306801">
    <stop
       offset="0"
       stop-color="#B84E51"
       id="stop3056" />
    <stop
       offset="1"
       stop-color="#F68E48"
       id="stop3058" />
  </linearGradient>
  <linearGradient
     id="logo-gradient-6"
     gradientUnits="userSpaceOnUse"
     x1="6.6322999"
     y1="64.319298"
     x2="49.678799"
     y2="107.3658">
    <stop
       offset="0"
       stop-color="#F9A03C"
       id="stop3061" />
    <stop
       offset="1"
       stop-color="#F7974E"
       id="stop3063" />
  </linearGradient>
  <path
     d="m 95.82,65.857 c 0.043,-0.418 0.074,-0.84 0.098,-1.264 C 95.947,64.091 65.707,35.399 65.707,35.399 h -0.723 c 0,0 30.651,32.331 30.836,30.458 z"
     id="path3065"
     inkscape:connector-curvature="0"
     style="fill:url(#logo-gradient-1)" />
  <path
     d="m 31.302,55.904 c -0.04,0.088 -0.08,0.176 -0.121,0.264 -0.043,0.092 -0.087,0.184 -0.131,0.275 -0.964,2.01 13.495,16.145 14.658,14.428 0.053,-0.076 0.106,-0.156 0.159,-0.232 0.059,-0.09 0.117,-0.176 0.175,-0.266 0.93,-1.412 -14.327,-15.387 -14.74,-14.469 z"
     id="path3067"
     inkscape:connector-curvature="0"
     style="fill:url(#logo-gradient-2)" />
  <path
     d="m 51.734,75.781 c -0.041,0.09 -0.332,0.582 -0.598,0.842 -0.045,0.09 14.115,14.133 14.115,14.133 h 1.275 c 0.001,0 -13.292,-14.381 -14.792,-14.975 z"
     id="path3069"
     inkscape:connector-curvature="0"
     style="fill:url(#logo-gradient-3)" />
  <path
     d="M 95.938,64.338 C 95.276,79.018 83.131,90.756 68.293,90.756 H 66.287 L 51.469,76.158 c 1.219,-1.719 2.352,-3.5 3.361,-5.357 h 13.463 c 4.258,0 7.723,-3.463 7.723,-7.723 0,-4.258 -3.465,-7.723 -7.723,-7.723 h -7.967 c 0.607,-3.209 0.939,-6.518 0.939,-9.903 0,-3.437 -0.338,-6.793 -0.967,-10.053 h 4.949 l 30.604,30.155 c 0.036,-0.404 0.065,-0.808 0.087,-1.216 z M 8.05,0 H 0 v 19.955 h 8.05 c 14.06,0 25.5,11.437 25.5,25.497 0,3.825 -0.853,7.456 -2.369,10.716 L 45.867,70.639 C 50.689,63.424 53.508,54.762 53.508,45.452 53.508,20.39 33.115,0 8.05,0 z"
     id="path3071"
     inkscape:connector-curvature="0"
     style="fill:url(#logo-gradient-4)" />
  <path
     d="M 68.293,0 H 35.695 c 7.962,4.861 14.555,11.754 19.047,19.955 h 13.551 c 4.258,0 7.723,3.463 7.723,7.723 0,4.259 -3.465,7.722 -7.723,7.722 h -3.045 l 30.604,30.155 c 0.072,-0.818 0.117,-1.641 0.117,-2.477 0,-6.727 -2.414,-12.898 -6.422,-17.701 4.008,-4.801 6.422,-10.973 6.422,-17.699 C 95.969,12.417 83.555,0 68.293,0 z"
     id="path3073"
     inkscape:connector-curvature="0"
     style="fill:url(#logo-gradient-5)" />
  <path
     d="M 66.287,90.756 H 35.928 C 42.039,86.982 47.322,82 51.469,76.158 L 66.287,90.756 z M 45.867,70.639 31.182,56.168 C 27.125,64.887 18.284,70.951 8.05,70.951 H 0 v 19.953 h 8.05 c 15.754,0 29.659,-8.058 37.817,-20.265 z"
     id="path3075"
     inkscape:connector-curvature="0"
     style="fill:url(#logo-gradient-6)" />
</svg>
